<svg id="Layer_1" enable-background="new 0 0 512 512" height="512" viewBox="0 0 512 512" width="512" xmlns="http://www.w3.org/2000/svg" fill="#6f6f6f"><g><path d="m466 128h-106v-24c0-57.346-46.654-104-104-104s-104 46.654-104 104v24h-106c-25.364 0-46 20.636-46 46v292c0 25.364 20.636 46 46 46h420c25.364 0 46-20.636 46-46v-292c0-25.364-20.636-46-46-46zm-282-24c0-39.701 32.299-72 72-72s72 32.299 72 72v24h-144zm296 362c0 7.72-6.28 14-14 14h-420c-7.72 0-14-6.28-14-14v-292c0-7.72 6.28-14 14-14h420c7.72 0 14 6.28 14 14z"/></g></svg>